<svg xmlns="http://www.w3.org/2000/svg" viewBox="0 0 256 256" focusable="false" color="var(--token-9de304cd-2494-43ce-a5e6-a3bd4f23294a, rgb(250, 250, 250))" style="user-select: none; width: 100%; height: 100%; display: inline-block; fill: var(--token-9de304cd-2494-43ce-a5e6-a3bd4f23294a, rgb(250, 250, 250)); color: var(--token-9de304cd-2494-43ce-a5e6-a3bd4f23294a, rgb(250, 250, 250)); flex-shrink: 0;"><g color="var(--token-9de304cd-2494-43ce-a5e6-a3bd4f23294a, rgb(250, 250, 250))" weight="regular"><path d="M208,40H48A24,24,0,0,0,24,64V176a24,24,0,0,0,24,24H208a24,24,0,0,0,24-24V64A24,24,0,0,0,208,40Zm8,136a8,8,0,0,1-8,8H48a8,8,0,0,1-8-8V64a8,8,0,0,1,8-8H208a8,8,0,0,1,8,8Zm-48,48a8,8,0,0,1-8,8H96a8,8,0,0,1,0-16h64A8,8,0,0,1,168,224Z"></path></g></svg>